<svg width="24" height="24" viewBox="0 0 24 24" fill="none" xmlns="http://www.w3.org/2000/svg">
<path d="M19.991 2.00195C19.7257 2.00195 19.4714 2.10731 19.2839 2.29485C19.0963 2.48238 18.991 2.73674 18.991 3.00195V3.63895C18.1476 4.68461 17.0816 5.52906 15.8707 6.11081C14.6598 6.69257 13.3344 6.997 11.991 7.00195H5.99097C5.19556 7.00275 4.43296 7.31907 3.87052 7.88151C3.30809 8.44395 2.99176 9.20655 2.99097 10.002V12.002C2.99176 12.7974 3.30809 13.56 3.87052 14.1224C4.43296 14.6848 5.19556 15.0012 5.99097 15.002H6.47497L4.07197 20.608C4.00673 20.7601 3.98031 20.9261 3.99505 21.091C4.0098 21.2559 4.06526 21.4146 4.15646 21.5528C4.24765 21.691 4.37173 21.8043 4.51756 21.8827C4.66339 21.9611 4.8264 22.0021 4.99197 22.002H8.99197C9.1875 22.0019 9.3787 21.9444 9.54188 21.8367C9.70506 21.729 9.83305 21.5757 9.90997 21.396L12.634 15.04C13.8646 15.1303 15.0635 15.472 16.1569 16.0439C17.2503 16.6158 18.2148 17.4057 18.991 18.365V19.002C18.991 19.2672 19.0963 19.5215 19.2839 19.7091C19.4714 19.8966 19.7257 20.002 19.991 20.002C20.2562 20.002 20.5105 19.8966 20.6981 19.7091C20.8856 19.5215 20.991 19.2672 20.991 19.002V3.00195C20.991 2.73674 20.8856 2.48238 20.6981 2.29485C20.5105 2.10731 20.2562 2.00195 19.991 2.00195ZM5.99097 13.002C5.72575 13.002 5.4714 12.8966 5.28386 12.7091C5.09632 12.5215 4.99097 12.2672 4.99097 12.002V10.002C4.99097 9.73674 5.09632 9.48238 5.28386 9.29485C5.4714 9.10731 5.72575 9.00195 5.99097 9.00195H6.99097V13.002H5.99097ZM8.33197 20.002H6.50797L8.64997 15.002H10.475L8.33197 20.002ZM18.992 15.524C17.0202 13.8995 14.5467 13.0083 11.992 13.002H8.99197V9.00195H11.992C14.5466 8.9955 17.0202 8.10431 18.992 6.47995V15.524Z" fill="white"/>
</svg>
