<svg width="32" height="32" viewBox="0 0 32 32" fill="none" xmlns="http://www.w3.org/2000/svg">
<path d="M17.84 30.6667H14.1734C13.16 30.6667 12.3334 29.84 12.3334 28.84V28.0933C12.3334 27.84 12.1734 27.6 11.9334 27.52C11.52 27.3733 11.12 27.2 10.7334 27.0267C10.4934 26.92 10.2267 26.96 10.04 27.1467L9.52004 27.6667C8.82671 28.36 7.62671 28.36 6.93337 27.6667L4.34671 25.08C3.62671 24.36 3.62671 23.2 4.34671 22.4933L4.86671 21.9733C5.04004 21.8 5.09337 21.5067 4.98671 21.28C4.80004 20.88 4.64004 20.48 4.49337 20.0933C4.41337 19.8533 4.17337 19.68 3.92004 19.68H3.17337C2.16004 19.68 1.33337 18.8533 1.33337 17.8533V14.1867C1.33337 13.1733 2.16004 12.3467 3.17337 12.3467H3.92004C4.17337 12.3467 4.41337 12.1867 4.49337 11.9333C4.64004 11.5333 4.80004 11.12 4.98671 10.7467C5.09337 10.5067 5.05337 10.24 4.86671 10.0533L4.34671 9.53333C4.00004 9.18667 3.81337 8.73333 3.81337 8.24C3.81337 7.74667 4.00004 7.29333 4.34671 6.94667L6.93337 4.36C7.60004 3.70667 8.86671 3.70667 9.52004 4.36L10.04 4.88C10.2267 5.05333 10.5067 5.10667 10.7334 5C11.12 4.81333 11.52 4.65333 11.92 4.50667C12.16 4.42667 12.3334 4.18667 12.3334 3.93333V3.18667C12.3334 2.17333 13.16 1.36 14.1734 1.36H17.84C18.8534 1.36 19.68 2.18667 19.68 3.18667V3.93333C19.68 4.18667 19.84 4.42667 20.08 4.50667C20.4934 4.65333 20.8934 4.82667 21.28 5C21.52 5.10667 21.7867 5.06667 21.9734 4.88L22.4934 4.36C23.1467 3.70667 24.4267 3.70667 25.08 4.36L27.6667 6.94667C28.3867 7.66667 28.3867 8.82667 27.6667 9.53333L27.1467 10.0533C26.9734 10.24 26.92 10.52 27.0267 10.7467C27.2134 11.1333 27.3734 11.5333 27.52 11.9333C27.5867 12.12 27.7867 12.3467 28.0934 12.3467H28.84C29.8534 12.3467 30.68 13.1733 30.68 14.1733V17.84C30.68 18.8533 29.8534 19.6667 28.84 19.6667H28.0934C27.84 19.6667 27.6 19.8267 27.52 20.08C27.3734 20.48 27.2134 20.8933 27.0267 21.2667C26.92 21.5067 26.96 21.7733 27.1467 21.96L27.6667 22.48C28.0134 22.8267 28.2 23.28 28.2 23.7733C28.2 24.2667 28.0134 24.72 27.6667 25.0667L25.08 27.6533C24.4134 28.32 23.1467 28.3067 22.4934 27.6533L21.9734 27.1333C21.7867 26.96 21.5067 26.9067 21.28 27.0133C20.8934 27.2 20.4934 27.36 20.0934 27.5067C19.8534 27.5867 19.68 27.8267 19.68 28.08V28.8267C19.68 29.84 18.8534 30.6533 17.84 30.6533V30.6667ZM14.3334 28.6667H17.6667V28.0933C17.6667 26.9867 18.3734 26 19.4134 25.6267C19.7467 25.5067 20.08 25.3733 20.4 25.2133C21.3734 24.7467 22.56 24.9467 23.3467 25.6933L23.7734 26.12L26.1334 23.7733L25.72 23.3733C24.9467 22.6 24.7334 21.4133 25.2134 20.4133C25.3734 20.0933 25.5067 19.76 25.6267 19.4133C25.9867 18.36 26.9867 17.6667 28.0934 17.6667H28.6667V14.3333H28.0934C27.0134 14.3333 26.0267 13.6533 25.6534 12.6267C25.52 12.24 25.3867 11.9067 25.2267 11.6C24.76 10.6133 24.96 9.44 25.7067 8.65333L26.1334 8.22667L23.7867 5.88L23.3734 6.29333C22.6 7.06667 21.4 7.26667 20.4134 6.8C20.0934 6.64 19.7467 6.50667 19.4 6.37333C18.3734 6.01333 17.6667 5.01333 17.6667 3.92V3.34667H14.3334V3.92C14.3334 5.02667 13.6267 6.01333 12.5867 6.38667C12.2534 6.50667 11.92 6.64 11.6 6.8C10.6267 7.26667 9.44004 7.06667 8.65337 6.32L8.22671 5.89333L5.86671 8.24L6.28004 8.64C7.05337 9.41333 7.26671 10.6 6.78671 11.6C6.62671 11.92 6.49337 12.2533 6.37337 12.6C6.01337 13.6533 5.01337 14.3467 3.90671 14.3467H3.33337V17.68H3.90671C5.01337 17.68 6.00004 18.3867 6.37337 19.4267C6.49337 19.76 6.62671 20.0933 6.78671 20.4267C7.25337 21.4267 7.05337 22.6133 6.28004 23.3867L5.88004 23.7867L8.22671 26.1467L8.64004 25.7333C9.41337 24.96 10.6 24.7467 11.6 25.2267C11.92 25.3867 12.2667 25.52 12.6134 25.6533C13.64 26.0133 14.3467 27.0133 14.3467 28.1067V28.68L14.3334 28.6667ZM16 24.1067C11.5334 24.1067 7.89337 20.4667 7.89337 16C7.89337 11.5333 11.5334 7.89333 16 7.89333C20.4667 7.89333 24.1067 11.5333 24.1067 16C24.1067 20.4667 20.4667 24.1067 16 24.1067ZM16 9.89333C12.6267 9.89333 9.89337 12.64 9.89337 16C9.89337 19.36 12.64 22.1067 16 22.1067C19.36 22.1067 22.1067 19.36 22.1067 16C22.1067 12.64 19.36 9.89333 16 9.89333Z" fill="#4D4D4D"/>
</svg>
